<svg width="17" height="14" viewBox="0 0 17 14" fill="none" xmlns="http://www.w3.org/2000/svg">
<path d="M14.0038 1.46253C12.998 0.971414 11.92 0.608414 10.7927 0.402002C10.7826 0.399915 10.7723 0.40126 10.763 0.405851C10.7536 0.410442 10.7459 0.418051 10.7408 0.427626C10.6027 0.690267 10.4489 1.03263 10.3411 1.3031C9.14548 1.10966 7.92995 1.10966 6.73433 1.3031C6.61425 1.00334 6.47885 0.711068 6.32875 0.427626C6.32366 0.417933 6.31597 0.410152 6.30669 0.405319C6.29741 0.400486 6.28699 0.398833 6.27682 0.400579C5.15016 0.60699 4.07213 0.96999 3.06576 1.46182C3.0571 1.46575 3.04976 1.47246 3.04473 1.48104C0.999111 4.73736 0.438407 7.91325 0.713829 11.0493C0.714596 11.057 0.716797 11.0644 0.720301 11.0711C0.723804 11.0779 0.728535 11.0838 0.734206 11.0884C1.92818 12.0297 3.25989 12.7467 4.67359 13.2095C4.68345 13.2128 4.69399 13.2128 4.70384 13.2095C4.71369 13.2062 4.72239 13.1997 4.72881 13.191C5.03302 12.7505 5.30259 12.2831 5.5347 11.7938C5.53792 11.7871 5.53977 11.7797 5.54014 11.7722C5.54051 11.7647 5.53937 11.7571 5.53682 11.7501C5.53426 11.7431 5.53034 11.7368 5.52533 11.7315C5.52031 11.7263 5.51432 11.7223 5.50775 11.7198C5.08311 11.5466 4.67168 11.3377 4.27722 11.0948C4.27013 11.0905 4.26416 11.0842 4.25984 11.0767C4.25552 11.0693 4.25298 11.0607 4.25246 11.0519C4.25194 11.0431 4.25345 11.0343 4.25685 11.0262C4.26026 11.0182 4.26545 11.0112 4.27196 11.0059C4.35479 10.9397 4.43761 10.8706 4.51649 10.8016C4.52359 10.7954 4.53214 10.7914 4.5412 10.7902C4.55025 10.7889 4.55944 10.7904 4.56776 10.7945C7.1491 12.05 9.94473 12.05 12.4958 10.7945C12.5042 10.7902 12.5135 10.7885 12.5226 10.7896C12.5318 10.7907 12.5405 10.7947 12.5478 10.8009C12.6266 10.8706 12.7088 10.9397 12.7923 11.0059C12.7989 11.0111 12.8041 11.018 12.8077 11.0259C12.8112 11.0339 12.8128 11.0427 12.8124 11.0515C12.812 11.0603 12.8096 11.0689 12.8054 11.0765C12.8012 11.084 12.7954 11.0903 12.7883 11.0948C12.3953 11.3397 11.9864 11.5468 11.5572 11.7191C11.5506 11.7217 11.5446 11.7257 11.5395 11.731C11.5345 11.7363 11.5306 11.7427 11.5281 11.7498C11.5255 11.7569 11.5244 11.7645 11.5248 11.7721C11.5251 11.7796 11.527 11.7871 11.5302 11.7938C11.7669 12.2828 12.0377 12.7483 12.3354 13.1903C12.3416 13.1993 12.3503 13.2061 12.3601 13.2097C12.37 13.2133 12.3807 13.2134 12.3907 13.2102C13.8068 12.7487 15.1407 12.0314 16.336 11.0884C16.3418 11.084 16.3467 11.0783 16.3503 11.0717C16.3539 11.0651 16.3562 11.0577 16.357 11.05C16.6857 7.42427 15.8062 4.274 14.0241 1.48246C14.0198 1.47339 14.0125 1.46632 14.0038 1.46253ZM5.92055 9.13963C5.14358 9.13963 4.50269 8.37875 4.50269 7.44563C4.50269 6.51179 5.1311 5.75163 5.92055 5.75163C6.71592 5.75163 7.3509 6.5182 7.33841 7.44563C7.33841 8.37946 6.71 9.13963 5.92055 9.13963ZM11.1628 9.13963C10.3851 9.13963 9.7449 8.37875 9.7449 7.44563C9.7449 6.51179 10.3727 5.75163 11.1628 5.75163C11.9581 5.75163 12.5931 6.5182 12.5806 7.44563C12.5806 8.37946 11.9588 9.13963 11.1628 9.13963Z" fill="#222327"/>
</svg>
