<svg width="94" height="70" viewBox="0 0 94 70" fill="none" xmlns="http://www.w3.org/2000/svg">
<path d="M10.8302 0.85989C9.98207 1.28282 8.94551 2.26966 8.47435 3.11553L7.67338 4.61929L6.87241 3.35049C6.44837 2.6456 5.60028 1.65876 4.98777 1.14185C4.37526 0.624928 3.99833 0.389965 4.1868 0.624928C4.37526 0.812897 4.32815 1.51778 4.04545 2.17568C3.76275 2.97455 3.80987 3.67944 4.32815 4.66628C5.22335 6.452 5.22335 6.54598 4.04545 6.54598C1.40695 6.54598 -0.430569 11.1512 0.0877066 16.5084C0.511751 20.8787 0.558867 21.2546 0.888679 21.8185C1.17137 22.3355 2.86755 29.4783 2.91467 30.2772C2.91467 30.5122 3.0089 30.8411 3.15025 30.9821C3.29159 31.1231 3.80987 32.4388 4.23391 33.9426C5.27047 37.2791 9.18109 45.0798 9.7936 45.0798C10.0763 45.0798 10.1705 45.2678 10.0292 45.4558C9.7936 45.8787 13.186 47.9934 14.4581 48.2283C17.0495 48.6982 18.887 45.0328 18.8399 39.4877C18.7928 35.4934 18.3687 31.217 17.8033 29.2434C17.6149 28.5385 17.5206 27.6456 17.6149 27.3167C17.7562 26.9877 17.6149 26.4708 17.3793 26.1419C16.9552 25.6719 16.1543 21.9125 16.1071 20.4088C16.1071 20.1268 16.0129 19.8449 15.8716 19.7039C15.7302 19.5629 15.2591 18.2941 14.7879 16.8843C13.61 13.4539 10.6888 8.51967 9.55802 8.14373C8.75705 7.90876 8.8984 7.72079 10.2648 7.10989C11.16 6.73395 12.0081 6.452 12.1965 6.452C12.5734 6.54598 14.6466 3.16252 15.3533 1.23583C15.8244 -0.0329666 15.8244 -0.0329704 14.0812 0.0140228C13.1388 0.0610161 11.6782 0.436958 10.8302 0.85989Z" fill="#FFA000"/>
<path d="M71.043 6.45197C69.5353 6.68693 66.0488 10.2584 65.2949 12.373C64.9651 13.3129 64.541 14.0648 64.3997 14.0648C64.2583 14.0648 64.117 14.4407 64.0699 14.8636C64.0699 15.3335 63.693 17.5892 63.2218 19.9388C61.6198 28.4915 62.091 36.6212 64.3055 39.0648C66.0016 40.9915 68.5459 39.3937 69.6767 35.6343C70.195 33.8016 71.043 33.0497 70.7604 34.6005C70.6661 35.0704 70.4777 36.1982 70.3363 37.1381L70.1478 38.8768L72.2681 39.2057C75.095 39.6287 75.1421 39.5817 75.9431 34.9294C76.0845 33.8956 76.4614 32.0159 76.697 30.7471C76.9325 29.4313 77.2624 27.2696 77.4037 25.9069L77.7335 23.4633H74.4354H71.1373L70.6661 25.108C70.2421 26.4708 70.2421 26.7527 70.8546 26.7527C71.4671 26.7527 71.4671 26.8937 70.9959 27.4576C70.6661 27.8336 70.0065 28.1625 69.5353 28.1625C68.7344 28.1625 68.6872 27.8336 68.9228 24.732C69.2055 19.9858 69.5353 18.811 70.619 18.2471C71.8911 17.5892 72.1738 17.9651 71.9854 20.2208C71.8911 22.0065 71.8911 22.1005 73.1633 21.8655C73.87 21.7245 75.3777 21.4896 76.4614 21.3016C78.9114 20.9727 79.0057 20.6437 78.8643 15.9445C78.723 12.232 77.5451 8.84858 75.896 7.39182C74.9537 6.59295 72.8335 6.17001 71.043 6.45197Z" fill="#FFA000"/>
<path d="M15.1184 9.36539C15.2597 10.5402 15.4482 11.809 15.5896 12.1849C15.7309 12.5609 15.9194 13.7827 16.0607 14.8165C16.2021 15.8974 16.4848 17.5891 16.7203 18.5759C17.003 19.6098 17.1915 20.7376 17.1915 21.1135C17.1915 21.4895 17.7569 24.45 18.4165 27.6925C19.0761 30.9349 19.7358 34.5534 19.8771 35.6812C20.0185 36.856 20.2069 38.1248 20.3483 38.5007C20.4425 38.8767 20.631 40.0045 20.7723 40.9444C20.9137 41.9312 21.2435 43.6229 21.4791 44.7038C21.7617 45.7846 21.856 46.8184 21.7146 47.0064C21.3848 47.5703 23.0339 47.8992 25.4368 47.8522C27.8868 47.7583 27.9339 47.6173 27.1801 44.3748C26.9445 43.341 26.6618 41.9782 26.5676 41.3203C26.4262 40.6624 26.1435 39.2996 25.8608 38.2658C24.9185 34.5064 24.8243 33.8015 25.2012 33.8015C25.4368 33.8015 25.8608 34.7883 26.1435 36.0101C26.4733 37.2789 27.3214 40.2865 28.0282 42.7301L29.3474 47.1944L31.2321 47.1474C32.2215 47.1474 33.8234 46.9594 34.7186 46.7714C35.6139 46.5835 36.9331 46.3485 37.6398 46.2545C40.3255 45.8786 40.7966 45.3147 40.561 42.6361C40.4197 41.2733 40.2312 39.9105 40.137 39.5816C39.9956 39.1586 40.8437 38.5007 41.5034 38.5007C41.5505 38.5007 41.5976 39.8635 41.6447 41.6022C41.6447 43.294 41.7389 44.7507 41.8803 44.8447C41.9745 44.9387 43.1995 44.6568 44.613 44.1868C46.9688 43.435 47.2515 43.2 47.4871 41.7432C47.7698 40.2395 47.7698 40.2395 47.864 41.5083C47.9111 42.7301 48.0525 42.8241 49.2304 42.5421C49.9371 42.4011 51.2092 42.1192 52.0102 41.9782L53.565 41.6492L53.2823 35.2583C52.9997 28.1624 53.0468 25.7188 53.3295 25.3898C53.4708 25.2958 53.6122 26.2357 53.6593 27.5045C53.7064 28.7733 53.7535 30.1361 53.8006 30.512C53.8477 30.888 54.0362 33.0026 54.2247 35.2113C54.6958 40.6624 54.7901 40.8974 56.2978 40.6624C57.0045 40.5684 58.1353 40.4274 58.842 40.4274C60.3498 40.3804 60.4911 39.9575 60.868 35.2113C61.0565 33.2846 61.245 30.747 61.3392 29.5722C61.4805 28.3974 61.669 25.7658 61.8103 23.6981C61.9517 21.6304 62.1873 19.2808 62.2815 18.5289C62.4229 17.7301 62.6113 15.4274 62.7055 13.3598C62.8469 11.2451 62.9411 9.36539 62.9882 9.13043C63.4123 7.15675 63.0825 7.01577 59.4545 7.06276L55.968 7.10975L56.1093 14.5816C56.2507 18.6699 56.4391 22.2413 56.5805 22.4763C56.7689 22.7113 56.6747 23.0402 56.4391 23.1812C56.0151 23.4631 55.4968 19.9857 55.167 14.7695C55.0256 12.1849 54.8372 10.7282 54.366 8.19058C54.2247 7.4387 53.7535 7.25073 51.8689 7.15675C50.5967 7.10975 49.0419 7.15675 48.3823 7.29772C47.2515 7.48569 47.2044 7.67366 47.2986 10.2113C47.6284 17.4481 47.6284 38.5007 47.3457 38.5007C47.1102 38.5007 46.9688 37.6079 46.9217 36.4801C46.8746 33.5665 46.6861 30.747 46.2621 26.7526C46.0736 24.8259 45.838 22.4763 45.7909 21.5834C45.2726 15.1455 44.4717 7.67366 44.2832 7.48569C44.189 7.34472 41.6918 7.25073 38.7235 7.25073L33.3523 7.20374L33.5879 15.4744C33.8234 25.5778 34.1061 33.5665 34.3417 37.4669C34.4831 39.1116 34.3888 40.5214 34.2475 40.6154C33.9177 40.8034 32.7398 37.2319 32.5984 35.7282C32.5984 35.3053 32.4571 34.7413 32.2686 34.5064C32.1273 34.2244 31.8917 33.4256 31.7032 32.6737C31.4205 31.4519 31.2321 31.3579 29.5359 31.5459C27.3214 31.7338 27.0387 31.0289 28.9705 30.1831C31.6561 28.9613 33.0225 22.7583 31.8917 17.2601C30.9494 12.8428 27.6512 8.47253 24.7301 7.67366C24.4945 7.62667 24.2118 7.57968 24.0233 7.48569C23.7877 7.4387 21.6675 7.34472 19.2646 7.34472L14.8828 7.25073L15.1184 9.36539ZM40.0899 21.5834C40.7024 27.5985 40.8908 33.8015 40.4668 33.8015C40.2312 33.8015 40.0428 33.5195 40.0428 33.1906C40.0428 32.9086 39.9014 30.1831 39.7129 27.2225C39.2418 19.9857 39.2418 18.388 39.6187 18.8109C39.7129 18.9049 39.9485 20.1737 40.0899 21.5834ZM25.7195 21.3015C26.6618 22.3823 26.6147 25.8128 25.6724 26.4237C24.5887 27.1286 24.4474 26.9406 24.1175 23.9801C23.9762 22.5703 23.7406 21.2545 23.5993 21.0195C23.1752 20.3616 25.1541 20.5966 25.7195 21.3015Z" fill="#FFA000"/>
<path d="M82.3058 7.1568C82.3058 7.20379 81.9759 8.75455 81.599 10.5403C81.175 12.373 80.7509 14.6756 80.6096 15.7094C80.5153 16.7433 80.2798 17.9181 80.0913 18.294C79.95 18.67 79.7615 19.6098 79.6673 20.4087C79.6201 21.1606 79.3374 22.6643 79.0548 23.6982C78.7721 24.732 78.2067 27.5985 77.7826 30.0421C77.3586 32.4858 76.8874 35.0234 76.699 35.6812C76.5105 36.3391 76.3691 37.467 76.3691 38.2658C76.4163 39.4876 76.6047 39.6756 77.8297 39.7226C79.4317 39.8166 82.6356 40.2865 83.7664 40.6155C84.8971 40.9914 85.3212 40.1925 87.1587 34.2715C89.0433 28.3504 89.0433 28.1624 85.9337 28.1624C84.3317 28.1624 84.1433 28.0215 84.2846 27.0816C84.3789 26.2358 84.7087 26.0478 86.2164 26.0478C88.1953 26.0478 88.5722 25.6249 89.0905 23.0403L89.3732 21.4895L87.4885 21.6775C86.0279 21.8185 85.651 21.6775 85.8395 21.2076C85.9808 20.8316 86.075 20.2207 86.075 19.7508C86.075 19.0459 86.452 18.9519 88.8078 19.1399L91.5405 19.3279L92.6242 13.7827C93.2367 10.6812 93.8492 7.90868 93.9905 7.57973C94.1319 7.1568 92.8126 7.01582 88.2424 7.01582C84.9914 7.01582 82.3058 7.06282 82.3058 7.1568Z" fill="#FFA000"/>
<path d="M69.7713 43.247C69.5828 43.576 67.9338 52.3166 67.4626 55.888C67.3684 56.5459 67.1799 57.5797 67.0386 58.2376C66.6616 60.0703 65.8607 64.8636 65.5309 66.9312C65.3895 67.9181 65.201 68.9049 65.0597 69.0929C64.7299 69.6568 76.2262 69.8448 76.6031 69.2809C76.8387 68.9989 77.5454 67.0252 78.2522 64.8636C79.7128 60.3053 79.6185 60.1173 76.0848 60.1173C73.8233 60.1173 73.5406 59.9293 74.2473 58.8015C74.4829 58.4256 75.1425 58.2846 76.132 58.4726C78.0637 58.8015 79.006 58.0966 79.006 56.3109C79.006 55.0421 78.8647 54.9481 77.0743 54.9481C75.3781 54.9481 75.1896 54.8542 75.331 53.8673C75.4252 53.3034 75.7079 52.8805 75.9435 52.9275C76.2262 52.9275 77.4983 53.1154 78.8176 53.2564L81.2205 53.4914L82.4455 49.403C83.1051 47.1474 83.7176 45.0797 83.8119 44.8448C83.9061 44.5628 82.9638 44.1399 81.7388 43.8109C78.9118 43.153 70.1482 42.6831 69.7713 43.247Z" fill="#FFA000"/>
<path d="M55.6849 44.0459C48.5704 47.7113 45.979 59.3655 50.5493 67.1192C52.2455 70.0328 56.3446 70.8786 59.6898 68.9989C62.2341 67.5892 65.061 62.6079 65.9562 58.0027C66.1918 56.6869 66.0976 56.5459 64.9668 56.6399C64.26 56.6399 62.5639 56.7339 61.1975 56.7339C59.784 56.7809 58.7946 57.0158 58.983 57.2508C59.1244 57.4858 59.0302 57.8147 58.7475 58.0027C58.4648 58.1907 58.3705 58.4726 58.5119 58.7076C59.0773 59.6004 58.135 60.5873 56.7686 60.5873H55.3551L55.5436 57.0158C55.732 53.3034 56.2032 52.4576 58.0407 52.6925C58.7004 52.7865 58.983 53.2094 58.983 54.0083C58.983 55.4181 59.5956 56.4519 60.2081 56.076C60.6792 55.794 64.5427 55.2771 65.9091 55.3241C66.8985 55.3711 67.6524 51.5177 66.8043 50.5309C66.5216 50.2019 66.4274 49.826 66.5687 49.685C66.9928 49.2151 64.9668 45.6906 63.6004 44.3749C62.5167 43.388 61.8571 43.2 59.6898 43.247C58.2763 43.294 56.4859 43.623 55.6849 44.0459Z" fill="#FFA000"/>
<path d="M45.7906 46.9595C45.0368 47.1475 43.4348 47.6174 42.2569 47.9934L40.1367 48.6512V59.3185V69.9858L43.5762 69.8919C45.4137 69.8449 46.9685 69.6569 47.0157 69.5159C47.0157 69.3749 47.157 66.6494 47.2512 63.4069C47.3455 60.1644 47.5339 55.0422 47.6753 51.9877C47.7695 48.9802 47.7224 46.4896 47.5339 46.5366C47.3455 46.5836 46.5916 46.7715 45.7906 46.9595Z" fill="#FFA000"/>
<path d="M36.367 49.3561C35.3304 49.5441 33.6814 49.8261 32.6919 50.014L30.9015 50.296L31.1842 54.6193C31.7496 63.5479 31.7496 63.5009 31.09 63.7358C30.1005 64.1118 29.9592 63.7358 29.7707 60.7283C29.6765 59.2246 29.4409 56.734 29.2525 55.1832C29.1111 53.6325 28.9226 51.9877 28.9226 51.5178C28.8755 50.8129 28.3573 50.7189 25.012 50.7189C22.3264 50.7189 21.0543 50.9069 20.9129 51.2828C20.8187 51.6118 21.0072 53.1155 21.337 54.6193C21.7139 56.0761 21.9495 57.4858 21.9024 57.6738C21.9024 57.8618 21.9495 58.3317 22.0908 58.7076C22.2322 59.0836 22.562 60.5873 22.8447 62.0911C23.787 67.1193 26.8024 69.9858 31.1842 69.9858C35.0477 69.9858 36.8853 68.717 38.2516 65.0516C38.8641 63.4539 39.0055 61.7152 38.8641 56.217C38.7699 52.4106 38.5814 49.2621 38.4401 49.1682C38.3458 49.0742 37.4035 49.1682 36.367 49.3561Z" fill="#FFA000"/>
<path d="M11.1602 50.061C11.1602 50.296 11.49 51.6118 11.8198 52.9746C12.1967 54.3373 12.5265 55.5591 12.5265 55.6531C12.5736 55.7941 12.6679 56.1231 12.7621 56.452C13.2333 57.9558 14.4583 62.796 14.4583 63.0309C14.4583 63.1719 13.94 63.1719 13.3275 63.0779C12.715 62.937 12.0554 63.0779 11.914 63.3599C11.7255 63.6419 11.7727 63.8768 12.0082 63.8768C12.2438 63.8768 12.715 65.0516 13.0448 66.5084C13.7987 69.5629 14.364 69.9858 18.0862 69.9858C20.6776 69.9858 20.9132 69.8919 21.667 68.5761C22.1382 67.7772 22.4209 66.7434 22.2324 66.2734C22.0911 65.8035 21.8555 64.6757 21.7141 63.8298C21.2901 61.2452 21.243 60.9163 20.8189 59.1776C20.6305 58.2847 20.3949 57.1099 20.3478 56.593C20.3007 56.0761 20.1122 55.3242 19.9237 54.9012C19.7353 54.4313 19.5939 53.8204 19.641 53.4915C19.8295 52.2697 19.0756 50.7189 18.2747 50.6719C17.1439 50.5779 15.9189 50.39 13.4217 50.014C12.1496 49.8261 11.1602 49.873 11.1602 50.061Z" fill="#FFA000"/>
</svg>
