<svg width="86" height="86" viewBox="0 0 86 86" fill="none" xmlns="http://www.w3.org/2000/svg">
<path d="M43.0002 31.8049C36.8357 31.8049 31.805 36.8356 31.805 43C31.805 49.1645 36.8357 54.1951 43.0002 54.1951C49.1646 54.1951 54.1953 49.1645 54.1953 43C54.1953 36.8356 49.1646 31.8049 43.0002 31.8049ZM76.5771 43C76.5771 38.3641 76.6191 33.7701 76.3588 29.1426C76.0984 23.7676 74.8722 18.9973 70.9418 15.0668C67.0029 11.1279 62.241 9.91016 56.866 9.64981C52.23 9.38946 47.6361 9.43145 43.0085 9.43145C38.3726 9.43145 33.7787 9.38946 29.1511 9.64981C23.7761 9.91016 19.0058 11.1363 15.0753 15.0668C11.1365 19.0057 9.91871 23.7676 9.65836 29.1426C9.39801 33.7785 9.44 38.3725 9.44 43C9.44 47.6275 9.39801 52.2299 9.65836 56.8574C9.91871 62.2324 11.1449 67.0027 15.0753 70.9332C19.0142 74.8721 23.7761 76.0898 29.1511 76.3502C33.7871 76.6106 38.381 76.5686 43.0085 76.5686C47.6445 76.5686 52.2384 76.6106 56.866 76.3502C62.241 76.0898 67.0113 74.8637 70.9418 70.9332C74.8806 66.9943 76.0984 62.2324 76.3588 56.8574C76.6275 52.2299 76.5771 47.6359 76.5771 43V43ZM43.0002 60.2252C33.4679 60.2252 25.775 52.5322 25.775 43C25.775 33.4678 33.4679 25.7748 43.0002 25.7748C52.5324 25.7748 60.2253 33.4678 60.2253 43C60.2253 52.5322 52.5324 60.2252 43.0002 60.2252ZM60.9308 29.0922C58.7052 29.0922 56.908 27.2949 56.908 25.0693C56.908 22.8438 58.7052 21.0465 60.9308 21.0465C63.1564 21.0465 64.9537 22.8438 64.9537 25.0693C64.9543 25.5978 64.8507 26.1212 64.6488 26.6096C64.4469 27.098 64.1506 27.5417 63.7769 27.9154C63.4032 28.2891 62.9595 28.5854 62.4711 28.7873C61.9827 28.9893 61.4593 29.0929 60.9308 29.0922V29.0922Z" fill="#FFA000"/>
</svg>
