<svg width="87" height="87" viewBox="0 0 87 87" fill="none" xmlns="http://www.w3.org/2000/svg">
<path d="M85.7057 17.8967C82.6789 19.238 79.4272 20.1442 76.0089 20.5538C79.536 18.4433 82.1748 15.1217 83.4329 11.2086C80.1191 13.1769 76.4922 14.5624 72.7101 15.3048C70.1667 12.5892 66.798 10.7893 63.1268 10.1844C59.4556 9.5796 55.6875 10.2037 52.4073 11.9599C49.1272 13.7161 46.5187 16.506 44.9867 19.8966C43.4547 23.2873 43.0849 27.0888 43.9349 30.7111C37.2202 30.374 30.6515 28.6287 24.655 25.5886C18.6585 22.5485 13.3683 18.2816 9.12761 13.0646C7.67761 15.5658 6.84386 18.4658 6.84386 21.5543C6.84224 24.3347 7.52693 27.0725 8.83717 29.5248C10.1474 31.977 12.0427 34.068 14.3549 35.6121C11.6734 35.5268 9.05102 34.8022 6.70611 33.4987V33.7162C6.70584 37.6158 8.05473 41.3953 10.5239 44.4136C12.9931 47.4318 16.4304 49.5028 20.2527 50.2752C17.7652 50.9484 15.1572 51.0476 12.6257 50.5652C13.7042 53.9206 15.8048 56.8547 18.6337 58.9568C21.4625 61.059 24.8779 62.2239 28.4017 62.2885C22.4199 66.9843 15.0323 69.5315 7.42748 69.5203C6.08037 69.5207 4.73439 69.442 3.39648 69.2847C11.1158 74.248 20.1017 76.8821 29.279 76.8718C60.3452 76.8718 77.3284 51.1416 77.3284 28.8261C77.3284 28.1011 77.3102 27.3688 77.2776 26.6438C80.581 24.2549 83.4325 21.2966 85.6985 17.9076L85.7057 17.8967V17.8967Z" fill="#FFA000"/>
</svg>
