<svg width="86" height="66" viewBox="0 0 86 66" fill="none" xmlns="http://www.w3.org/2000/svg">
<path d="M72.8053 5.62512C67.2288 3.0659 61.3444 1.23935 55.2989 0.190989C55.2441 0.181765 55.1879 0.189732 55.1378 0.213794C55.0878 0.237857 55.0464 0.276833 55.0194 0.325364C54.2615 1.66911 53.423 3.42674 52.8372 4.80274C46.3205 3.81379 39.692 3.81379 33.1754 4.80274C32.5219 3.2699 31.7825 1.77507 30.9609 0.325364C30.9333 0.277365 30.8919 0.238837 30.842 0.214852C30.7921 0.190867 30.7361 0.182548 30.6814 0.190989C24.6345 1.23374 18.7489 3.06124 13.175 5.62512C13.1273 5.64332 13.0874 5.67751 13.0622 5.72186C1.91441 22.379 -1.14397 38.6276 0.355658 54.672C0.361033 54.7472 0.409408 54.8225 0.468533 54.8709C6.96005 59.6794 14.221 63.3508 21.9417 65.7284C21.9962 65.7456 22.0547 65.7449 22.1089 65.7266C22.163 65.7082 22.2099 65.6731 22.2427 65.6262C23.8982 63.3687 25.3709 60.9876 26.6394 58.4829C26.6658 58.4313 26.6749 58.3725 26.6652 58.3154C26.6555 58.2582 26.6276 58.2057 26.5857 58.1657C26.5579 58.1395 26.5249 58.1194 26.4889 58.1066C24.1731 57.2166 21.9303 56.1473 19.7809 54.9085C19.7209 54.8745 19.6762 54.8187 19.6562 54.7526C19.6362 54.6866 19.6424 54.6154 19.6734 54.5537C19.6917 54.5137 19.7194 54.4787 19.754 54.4516C20.2055 54.113 20.657 53.7582 21.087 53.4035C21.125 53.373 21.1706 53.3533 21.2189 53.3467C21.2672 53.3401 21.3163 53.3467 21.3612 53.3659C35.4383 59.7944 50.6764 59.7944 64.5815 53.3659C64.628 53.3458 64.679 53.3386 64.7292 53.3453C64.7793 53.3519 64.8268 53.372 64.8664 53.4035C65.2964 53.7582 65.7479 54.113 66.1994 54.4516C66.236 54.4784 66.2654 54.5137 66.2849 54.5546C66.3045 54.5955 66.3136 54.6406 66.3115 54.6858C66.3094 54.7311 66.2961 54.7751 66.2727 54.814C66.2494 54.8528 66.2168 54.8853 66.1779 54.9085C64.0334 56.1587 61.7877 57.2267 59.4645 58.1012C59.4275 58.1147 59.3938 58.1361 59.366 58.1639C59.3381 58.1918 59.3167 58.2254 59.3033 58.2625C59.2909 58.2984 59.2859 58.3365 59.2886 58.3743C59.2914 58.4122 59.3019 58.4492 59.3194 58.4829C60.6094 60.9822 62.0875 63.3687 63.7108 65.6262C63.7436 65.6731 63.7904 65.7082 63.8446 65.7266C63.8987 65.7449 63.9573 65.7456 64.0118 65.7284C71.7454 63.3581 79.0181 59.6863 85.5172 54.8709C85.5497 54.8483 85.5768 54.8188 85.5963 54.7843C85.6158 54.7499 85.6274 54.7115 85.63 54.672C87.4253 36.1229 82.6254 20.0086 72.9128 5.72724C72.903 5.70365 72.8884 5.68238 72.8699 5.66479C72.8513 5.6472 72.8293 5.63368 72.8053 5.62512V5.62512ZM28.741 44.9002C24.5002 44.9002 21.0118 41.0087 21.0118 36.2357C21.0118 31.4574 24.4357 27.5659 28.741 27.5659C33.0787 27.5659 36.5348 31.4896 36.4703 36.2357C36.4703 41.0087 33.0464 44.9002 28.741 44.9002ZM57.3145 44.9002C53.079 44.9002 49.5853 41.0087 49.5853 36.2357C49.5853 31.4574 53.0092 27.5659 57.3145 27.5659C61.6522 27.5659 65.1137 31.4896 65.0438 36.2357C65.0438 41.0087 61.6522 44.9002 57.3145 44.9002Z" fill="#FFA000"/>
</svg>
