<svg width="92" height="92" viewBox="0 0 92 92" fill="none" xmlns="http://www.w3.org/2000/svg">
<g clip-path="url(#clip0_604_3381)">
<path d="M90.0838 24.9434C89.5628 23.0851 88.5481 21.4027 87.1474 20.0751C85.7072 18.7066 83.942 17.7277 82.0184 17.2307C74.8194 15.3332 45.9774 15.3332 45.9774 15.3332C33.9535 15.1964 21.9326 15.7981 9.98241 17.1349C8.05881 17.6685 6.29691 18.6693 4.85341 20.0482C3.43508 21.4129 2.40775 23.0957 1.87108 24.9396C0.581903 31.8846 -0.0444679 38.9364 0.000412744 45.9999C-0.0455873 53.0571 0.579246 60.1066 1.87108 67.0602C2.39625 68.8964 3.41975 70.5716 4.84191 71.9247C6.26408 73.2779 8.03508 74.2554 9.98241 74.7729C17.2772 76.6666 45.9774 76.6666 45.9774 76.6666C58.0166 76.8035 70.0529 76.2019 82.0184 74.8649C83.942 74.368 85.7072 73.389 87.1474 72.0206C88.5476 70.6932 89.5611 69.0105 90.0799 67.1522C91.4028 60.2099 92.046 53.1552 92.0004 46.0881C92.0999 38.991 91.4575 31.903 90.0838 24.9396V24.9434ZM36.8081 59.1252V32.8784L60.8047 46.0037L36.8081 59.1252Z" fill="#FFA000"/>
</g>
<defs>
<clipPath id="clip0_604_3381">
<rect width="92" height="92" fill="white"/>
</clipPath>
</defs>
</svg>
