<svg width="24" height="24" viewBox="0 0 24 24" fill="none" xmlns="http://www.w3.org/2000/svg">
<path d="M8.55841 21.9078L8.55873 21.9067L8.56297 21.893L8.5795 21.8395L8.64234 21.6361C8.69654 21.4607 8.77413 21.21 8.86769 20.9082C9.05481 20.3046 9.30587 19.4967 9.56155 18.6797C9.81716 17.863 10.0776 17.0364 10.2835 16.3957C10.3864 16.0756 10.4761 15.8005 10.5449 15.5959C10.5792 15.4938 10.609 15.4074 10.6329 15.341C10.6506 15.2918 10.6723 15.2327 10.6932 15.1883C10.8291 14.8784 11.1253 14.7625 11.2875 14.718C11.3805 14.6925 11.4653 14.6803 11.5259 14.6743C11.5567 14.6713 11.5826 14.6697 11.6019 14.6688C11.6116 14.6684 11.6197 14.6682 11.626 14.6681L11.6341 14.6679L11.6371 14.6679L11.6383 14.6679L11.6389 14.6679H11.6391C11.6392 14.6679 11.6394 14.6679 11.6394 15.0587V14.6679H12.4592V15.0589C12.4592 14.6679 12.4593 14.6679 12.4595 14.6679H12.4597L12.4603 14.6679L12.4615 14.6679L12.4646 14.6679L12.4727 14.6681C12.479 14.6682 12.487 14.6684 12.4966 14.6689C12.5157 14.6697 12.5414 14.6713 12.5719 14.6744C12.632 14.6805 12.7159 14.6927 12.8081 14.7182C12.9745 14.7642 13.2646 14.8808 13.4066 15.1853C13.4374 15.2513 13.4923 15.4124 13.5536 15.5967C13.6214 15.8006 13.7104 16.0749 13.8129 16.3946C14.0179 17.0341 14.2783 17.8594 14.5343 18.6749C14.7902 19.4906 15.0419 20.2973 15.2296 20.9001L15.4557 21.6269L15.5188 21.83L15.5354 21.8834L15.5397 21.8971L15.5403 21.8992C15.5946 22.0701 15.7347 22.2372 15.9566 22.3453C16.1791 22.4538 16.4504 22.4853 16.7064 22.4273C16.9625 22.3693 17.1621 22.2318 17.2752 22.0662C17.384 21.907 17.4097 21.7296 17.3598 21.5648L17.3566 21.556L17.3367 21.502C17.3194 21.4547 17.2941 21.3853 17.2618 21.2966C17.1973 21.1191 17.1052 20.8642 16.9947 20.5542C16.7739 19.9343 16.4791 19.093 16.1843 18.2086C15.8896 17.325 15.5935 16.3944 15.3707 15.597C15.2593 15.1984 15.165 14.8291 15.0983 14.5132C15.0331 14.2045 14.9887 13.9221 14.9887 13.7081V10.3999V10.0803L15.3004 10.0098L20.5502 8.82146L8.55841 21.9078ZM8.55841 21.9078C8.55824 21.9083 8.55808 21.9089 8.55791 21.9094M8.55841 21.9078L8.55791 21.9094M8.55791 21.9094C8.53072 21.9939 8.48278 22.0776 8.41276 22.1544C8.34214 22.232 8.25067 22.3007 8.14133 22.3539C7.91861 22.4622 7.64717 22.4935 7.39118 22.4353C7.26553 22.4067 7.15088 22.3582 7.05322 22.2948C6.95562 22.2314 6.87833 22.1553 6.82263 22.0737C6.71396 21.9143 6.68849 21.7367 6.73868 21.5718L6.74206 21.5626L6.76187 21.5085C6.77919 21.4612 6.80456 21.3917 6.83681 21.3029C6.90131 21.1253 6.9934 20.8701 7.10388 20.5598C7.32476 19.9392 7.61947 19.0971 7.91436 18.2119C8.20896 17.3274 8.50505 16.396 8.72793 15.5979C8.83932 15.1991 8.93356 14.8295 9.00026 14.5135C9.06545 14.2046 9.10986 13.9221 9.10986 13.7081V10.3954V10.0759L8.7982 10.0053L3.56941 8.82138L3.56942 8.82134L3.56346 8.82008C3.43573 8.7932 3.31867 8.74571 3.21864 8.68266C3.11866 8.61965 3.03921 8.5434 2.98177 8.46114C2.92452 8.37916 2.88987 8.2924 2.87592 8.20626C2.862 8.12032 2.86829 8.03269 2.89535 7.94712C2.92251 7.86124 2.9711 7.77612 3.04252 7.69806C3.11411 7.61983 3.20696 7.55065 3.31794 7.49748C3.42894 7.44431 3.55392 7.40918 3.68549 7.39588C3.81439 7.38285 3.94481 7.39126 4.06877 7.42019L4.07292 7.42138L4.1109 7.43218C4.14413 7.44161 4.19291 7.45539 4.2555 7.47289C4.38067 7.50789 4.56112 7.55781 4.78295 7.61768C5.22642 7.73736 5.83616 7.89704 6.50066 8.05683C7.8109 8.37191 9.39369 8.70272 10.3121 8.70272H13.8078C14.725 8.70272 16.3065 8.37189 17.6157 8.05681C18.2797 7.89702 18.889 7.73734 19.3322 7.61766C19.5539 7.55779 19.7342 7.50788 19.8593 7.47287C19.9218 7.45537 19.9706 7.4416 20.0038 7.43217L20.0417 7.42136L20.0432 7.42094C20.2963 7.36581 20.5635 7.39767 20.7833 7.50456C21.0055 7.61261 21.1459 7.77965 21.2004 7.95063C21.2536 8.11756 21.229 8.29812 21.1188 8.45983C21.0058 8.62547 20.8065 8.76312 20.5505 8.82138L8.55791 21.9094ZM13.9249 5.55599C13.4397 5.96572 12.7691 6.20465 12.0586 6.20465C11.3481 6.20465 10.6776 5.96572 10.1924 5.55599C9.70918 5.14797 9.45435 4.61053 9.45435 4.06771C9.45435 3.52488 9.70918 2.98745 10.1924 2.57943C10.6776 2.16969 11.3481 1.93076 12.0586 1.93076C12.7691 1.93076 13.4397 2.16969 13.9249 2.57943C14.4081 2.98745 14.6629 3.52488 14.6629 4.06771C14.6629 4.61053 14.4081 5.14797 13.9249 5.55599Z" stroke="#FFA000" stroke-width="0.8"/>
</svg>
