<svg width="40" height="41" viewBox="0 0 40 41" fill="none" xmlns="http://www.w3.org/2000/svg">
<path d="M36.6673 28.4986V8.11374C36.6673 6.08708 35.034 4.58397 33.0507 4.75285H32.9507C29.4507 5.05685 24.134 6.86397 21.1673 8.75552L20.884 8.9413C20.4007 9.2453 19.6007 9.2453 19.1173 8.9413L18.7007 8.68797C15.734 6.8133 10.434 5.02308 6.93398 4.73597C4.95065 4.56708 3.33398 6.08708 3.33398 8.09685V28.4986C3.33398 30.12 4.63398 31.64 6.23398 31.8426L6.71732 31.9102C10.334 32.4 15.9173 34.2577 19.1173 36.0311L19.184 36.0649C19.634 36.3182 20.3507 36.3182 20.784 36.0649C23.984 34.2746 29.584 32.4 33.2173 31.9102L33.7673 31.8426C35.3673 31.64 36.6673 30.12 36.6673 28.4986Z" stroke="#FFA000" stroke-width="2" stroke-linecap="round" stroke-linejoin="round"/>
<path d="M20 9.49854V34.8319" stroke="#FFA000" stroke-width="1.5" stroke-linecap="round" stroke-linejoin="round"/>
<path d="M12.916 14.5652H9.16602" stroke="#FFA000" stroke-width="1.5" stroke-linecap="round" stroke-linejoin="round"/>
<path d="M14.166 19.6318H9.16602" stroke="#FFA000" stroke-width="1.5" stroke-linecap="round" stroke-linejoin="round"/>
</svg>
