<svg width="80" height="80" viewBox="0 0 80 80" fill="none" xmlns="http://www.w3.org/2000/svg">
<path d="M33.3327 16.6667H46.666C46.666 14.8986 45.9636 13.2029 44.7134 11.9526C43.4632 10.7024 41.7675 10 39.9993 10C38.2312 10 36.5355 10.7024 35.2853 11.9526C34.0351 13.2029 33.3327 14.8986 33.3327 16.6667ZM28.3327 16.6667C28.3327 15.1346 28.6344 13.6175 29.2208 12.202C29.8071 10.7866 30.6664 9.50044 31.7498 8.41709C32.8331 7.33374 34.1192 6.47438 35.5347 5.88807C36.9502 5.30177 38.4673 5 39.9993 5C41.5314 5 43.0485 5.30177 44.464 5.88807C45.8795 6.47438 47.1656 7.33374 48.2489 8.41709C49.3323 9.50044 50.1916 10.7866 50.7779 12.202C51.3643 13.6175 51.666 15.1346 51.666 16.6667H70.8327C71.4957 16.6667 72.1316 16.9301 72.6004 17.3989C73.0693 17.8677 73.3327 18.5036 73.3327 19.1667C73.3327 19.8297 73.0693 20.4656 72.6004 20.9344C72.1316 21.4033 71.4957 21.6667 70.8327 21.6667H66.4327L62.5327 62.0367C62.2335 65.1299 60.7928 68.0008 58.4916 70.0894C56.1904 72.178 53.1937 73.3345 50.086 73.3333H29.9127C26.8056 73.3337 23.8097 72.1768 21.5092 70.0883C19.2087 67.9998 17.7685 65.1294 17.4693 62.0367L13.566 21.6667H9.16602C8.50297 21.6667 7.86709 21.4033 7.39825 20.9344C6.92941 20.4656 6.66602 19.8297 6.66602 19.1667C6.66602 18.5036 6.92941 17.8677 7.39825 17.3989C7.86709 16.9301 8.50297 16.6667 9.16602 16.6667H28.3327ZM34.9993 32.5C34.9993 31.837 34.736 31.2011 34.2671 30.7322C33.7983 30.2634 33.1624 30 32.4993 30C31.8363 30 31.2004 30.2634 30.7316 30.7322C30.2627 31.2011 29.9993 31.837 29.9993 32.5V57.5C29.9993 58.163 30.2627 58.7989 30.7316 59.2678C31.2004 59.7366 31.8363 60 32.4993 60C33.1624 60 33.7983 59.7366 34.2671 59.2678C34.736 58.7989 34.9993 58.163 34.9993 57.5V32.5ZM47.4993 30C48.1624 30 48.7983 30.2634 49.2671 30.7322C49.736 31.2011 49.9993 31.837 49.9993 32.5V57.5C49.9993 58.163 49.736 58.7989 49.2671 59.2678C48.7983 59.7366 48.1624 60 47.4993 60C46.8363 60 46.2004 59.7366 45.7316 59.2678C45.2627 58.7989 44.9993 58.163 44.9993 57.5V32.5C44.9993 31.837 45.2627 31.2011 45.7316 30.7322C46.2004 30.2634 46.8363 30 47.4993 30ZM22.446 61.5567C22.6258 63.4122 23.4902 65.1342 24.8706 66.387C26.251 67.6399 28.0485 68.3337 29.9127 68.3333H50.086C51.9502 68.3337 53.7477 67.6399 55.1281 66.387C56.5085 65.1342 57.3729 63.4122 57.5527 61.5567L61.4127 21.6667H18.586L22.446 61.5567Z" fill="#FFA000"/>
</svg>
