<svg width="80" height="80" viewBox="0 0 80 80" fill="none" xmlns="http://www.w3.org/2000/svg">
<path d="M11.6668 68.3333C14.4335 71.1 18.9001 71.1 21.6668 68.3333L65.0001 25C67.7668 22.2333 67.7668 17.7667 65.0001 15C62.2335 12.2333 57.7668 12.2333 55.0001 15L11.6668 58.3333C8.90013 61.1 8.90013 65.5667 11.6668 68.3333Z" stroke="#FFA000" stroke-width="4" stroke-linecap="round" stroke-linejoin="round"/>
<path d="M60.0332 29.9667L50.0332 19.9667" stroke="#FFA000" stroke-width="4" stroke-linecap="round" stroke-linejoin="round"/>
<path d="M28.334 8.13335L33.334 6.66669L31.8673 11.6667L33.334 16.6667L28.334 15.2L23.334 16.6667L24.8007 11.6667L23.334 6.66669L28.334 8.13335Z" stroke="#FFA000" stroke-width="2" stroke-linecap="round" stroke-linejoin="round"/>
<path d="M15 28.1334L20 26.6667L18.5333 31.6667L20 36.6667L15 35.2L10 36.6667L11.4667 31.6667L10 26.6667L15 28.1334Z" stroke="#FFA000" stroke-width="2" stroke-linecap="round" stroke-linejoin="round"/>
<path d="M65 44.8L70 43.3333L68.5333 48.3333L70 53.3333L65 51.8666L60 53.3333L61.4667 48.3333L60 43.3333L65 44.8Z" stroke="#FFA000" stroke-width="2" stroke-linecap="round" stroke-linejoin="round"/>
</svg>
