<svg width="40" height="41" viewBox="0 0 40 41" fill="none" xmlns="http://www.w3.org/2000/svg">
<path d="M28.334 31.3529H21.6673L14.2506 36.3519C13.1506 37.095 11.6673 36.3013 11.6673 34.9502V31.3529C6.66732 31.3529 3.33398 27.9751 3.33398 22.9084V12.775C3.33398 7.70834 6.66732 4.33057 11.6673 4.33057H28.334C33.334 4.33057 36.6673 7.70834 36.6673 12.775V22.9084C36.6673 27.9751 33.334 31.3529 28.334 31.3529Z" stroke="#FFA000" stroke-width="2" stroke-miterlimit="10" stroke-linecap="round" stroke-linejoin="round"/>
<path d="M19.999 19.4123V19.0577C19.999 17.9092 20.6991 17.3012 21.3991 16.8114C22.0824 16.3385 22.7657 15.7305 22.7657 14.6159C22.7657 13.0621 21.5324 11.8123 19.999 11.8123C18.4657 11.8123 17.2324 13.0621 17.2324 14.6159" stroke="#FFA000" stroke-width="2" stroke-linecap="round" stroke-linejoin="round"/>
<path d="M19.9918 23.4487H20.0068" stroke="#FFA000" stroke-width="2" stroke-linecap="round" stroke-linejoin="round"/>
</svg>
