<svg width="24" height="25" viewBox="0 0 24 25" fill="none" xmlns="http://www.w3.org/2000/svg">
<path d="M17 18.4775H13L8.54999 21.4451C7.88999 21.8863 7 21.4151 7 20.613V18.4775C4 18.4775 2 16.4724 2 13.4647V7.44915C2 4.44143 4 2.43628 7 2.43628H17C20 2.43628 22 4.44143 22 7.44915V13.4647C22 16.4724 20 18.4775 17 18.4775Z" stroke="#FFA000" stroke-width="0.5" stroke-miterlimit="10" stroke-linecap="round" stroke-linejoin="round"/>
<path d="M11.9998 11.3893V11.1788C11.9998 10.497 12.4198 10.1361 12.8398 9.84533C13.2498 9.56461 13.6598 9.20369 13.6598 8.54199C13.6598 7.61963 12.9198 6.87769 11.9998 6.87769C11.0798 6.87769 10.3398 7.61963 10.3398 8.54199" stroke="#FFA000" stroke-width="0.5" stroke-linecap="round" stroke-linejoin="round"/>
<path d="M11.9955 13.7855H12.0045" stroke="#FFA000" stroke-width="0.5" stroke-linecap="round" stroke-linejoin="round"/>
</svg>
