<svg width="24" height="20" viewBox="0 0 24 20" fill="none" xmlns="http://www.w3.org/2000/svg">
<path d="M22 13.4266V3.74571C22 2.78323 21.02 2.0694 19.83 2.14961H19.77C17.67 2.29398 14.48 3.15218 12.7 4.05049L12.53 4.13872C12.24 4.28309 11.76 4.28309 11.47 4.13872L11.22 4.01841C9.44 3.12812 6.26 2.27794 4.16 2.14159C2.97 2.06138 2 2.78323 2 3.73769V13.4266C2 14.1965 2.78 14.9184 3.74 15.0146L4.03 15.0467C6.2 15.2793 9.55 16.1616 11.47 17.0038L11.51 17.0198C11.78 17.1401 12.21 17.1401 12.47 17.0198C14.39 16.1696 17.75 15.2793 19.93 15.0467L20.26 15.0146C21.22 14.9184 22 14.1965 22 13.4266Z" stroke="#FFA000" stroke-width="0.5" stroke-linecap="round" stroke-linejoin="round"/>
<path d="M12 4.40332V16.4342" stroke="#FFA000" stroke-width="0.5" stroke-linecap="round" stroke-linejoin="round"/>
<path d="M7.75 6.80957H5.5" stroke="#FFA000" stroke-width="0.5" stroke-linecap="round" stroke-linejoin="round"/>
<path d="M8.5 9.21558H5.5" stroke="#FFA000" stroke-width="0.5" stroke-linecap="round" stroke-linejoin="round"/>
</svg>
