<svg width="80" height="80" viewBox="0 0 80 80" fill="none" xmlns="http://www.w3.org/2000/svg">
<path d="M33.334 58.3333H46.6673" stroke="#FFA000" stroke-width="4" stroke-linecap="round" stroke-linejoin="round"/>
<path d="M6.66602 58.3333V25C6.66602 11.6666 9.99935 8.33331 23.3327 8.33331" stroke="#FFA000" stroke-width="4" stroke-linecap="round" stroke-linejoin="round"/>
<path d="M73.3327 58.3333V25C73.3327 11.6666 69.9993 8.33331 56.666 8.33331" stroke="#FFA000" stroke-width="4" stroke-linecap="round" stroke-linejoin="round"/>
<path d="M33.3327 53.0333V64C33.3327 70.6667 30.666 73.3334 23.9993 73.3334H15.9993C9.33268 73.3334 6.66602 70.6667 6.66602 64V53.0333C6.66602 46.3667 9.33268 43.7 15.9993 43.7H23.9993C30.666 43.7 33.3327 46.3667 33.3327 53.0333Z" stroke="#FFA000" stroke-width="4" stroke-linecap="round" stroke-linejoin="round"/>
<path d="M73.3327 53.0333V64C73.3327 70.6667 70.666 73.3334 63.9994 73.3334H55.9993C49.3327 73.3334 46.666 70.6667 46.666 64V53.0333C46.666 46.3667 49.3327 43.7 55.9993 43.7H63.9994C70.666 43.7 73.3327 46.3667 73.3327 53.0333Z" stroke="#FFA000" stroke-width="4" stroke-linecap="round" stroke-linejoin="round"/>
</svg>
